<svg xmlns="http://www.w3.org/2000/svg" xmlns:xlink="http://www.w3.org/1999/xlink" width="1956.172" height="565.803" viewBox="0 0 1956.172 565.803"><defs><style>.a{fill:none;}.b{clip-path:url(#a);}.c{fill:#0f173e;}.d{fill:#a01821;}</style><clipPath id="a"><rect class="a" width="1956.172" height="565.803"/></clipPath></defs><g class="b"><path class="c" d="M0,0V565.8H1956.172V249.028s-275.236-157.022-509.734-60.722c0,0-381.005,157.567-524.846,153.614s-315.65-7.906-495.451-86.962S127.248,136.372,0,0"/><path class="d" d="M1956.172,250.345s-246.783-235.851-707.607-50.068c0,0-287.682,108.043-487.46,83.009C761.1,283.286,321.7,259.567,0,0,0,0,74.723,138.066,479.609,276.414c0,0,242.87,83.292,449.309,66.164,0,0,137.848-7.008,340.956-83.011,0,0,169.592-73.745,297.45-87.16s283.131,22.6,388.848,77.938" transform="translate(0 0.002)"/></g></svg>