<svg xmlns="http://www.w3.org/2000/svg" width="118.161" height="75.268" viewBox="0 0 118.161 75.268"><g transform="translate(-15366.687 -4319)"><path d="M53.051,31.675V84.34a1.906,1.906,0,1,1-3.812,0V31.675a1.906,1.906,0,0,1,3.812,0Zm-13.341,4.79A1.9,1.9,0,0,0,37.8,38.371V77.644a1.906,1.906,0,1,0,3.812,0V38.371a1.9,1.9,0,0,0-1.906-1.906ZM28.276,25.373a1.9,1.9,0,0,0-1.906,1.906V88.736a1.906,1.906,0,0,0,3.812,0V27.292a1.9,1.9,0,0,0-1.906-1.906ZM16.841,34.14a1.9,1.9,0,0,0-1.906,1.906V79.969a1.906,1.906,0,1,0,3.812,0V36.046A1.9,1.9,0,0,0,16.841,34.14ZM5.406,42.272A1.9,1.9,0,0,0,3.5,44.177V71.85a1.906,1.906,0,0,0,3.812,0V44.177A1.9,1.9,0,0,0,5.406,42.272Zm114.35-5.806a1.9,1.9,0,0,0-1.906,1.906V77.644a1.906,1.906,0,1,0,3.812,0V38.371a1.9,1.9,0,0,0-1.906-1.906Zm-11.435-6.7a1.9,1.9,0,0,0-1.906,1.906V84.34a1.906,1.906,0,1,0,3.812,0V31.675A1.9,1.9,0,0,0,108.32,29.769Zm-11.435,6.7a1.9,1.9,0,0,0-1.906,1.906V77.644a1.906,1.906,0,1,0,3.812,0V38.371a1.9,1.9,0,0,0-1.906-1.906ZM85.451,44.317a1.9,1.9,0,0,0-1.906,1.906V69.8a1.906,1.906,0,1,0,3.812,0V46.223A1.9,1.9,0,0,0,85.451,44.317ZM74.016,36.465a1.9,1.9,0,0,0-1.906,1.906V77.644a1.906,1.906,0,1,0,3.812,0V38.371a1.9,1.9,0,0,0-1.906-1.906ZM62.581,20.38a1.9,1.9,0,0,0-1.906,1.906V93.742a1.906,1.906,0,1,0,3.812,0V22.286a1.9,1.9,0,0,0-1.906-1.906Z" transform="translate(15363.187 4298.62)"/></g></svg>