<svg xmlns="http://www.w3.org/2000/svg" width="21.877" height="24.097" viewBox="0 0 21.877 24.097"><defs><style>.a{fill:#fff;}</style></defs><g transform="translate(-705.464 -424)"><path class="a" d="M66.842,48.357H57.068a.658.658,0,0,1,0-1.317h9.774a.658.658,0,1,1,0,1.317Z" transform="translate(652.715 380.893)"/><path class="a" d="M63.456,88.387H57.068a.658.658,0,1,1,0-1.317h6.386a.658.658,0,0,1,0,1.317Z" transform="translate(652.715 344.277)"/><path class="a" d="M27.606,25.017H17.961a4.486,4.486,0,0,1-4.481-4.481V5.4A4.486,4.486,0,0,1,17.961.92h9.645A4.486,4.486,0,0,1,32.087,5.4a.658.658,0,1,1-1.317,0,3.167,3.167,0,0,0-3.164-3.164H17.961A3.167,3.167,0,0,0,14.8,5.4V20.536A3.167,3.167,0,0,0,17.961,23.7h9.645a3.167,3.167,0,0,0,3.164-3.164.658.658,0,1,1,1.317,0A4.486,4.486,0,0,1,27.606,25.017Z" transform="translate(691.984 423.08)"/><path class="a" d="M142.926,94.009l-1.957-1.956a.659.659,0,0,0-.931,0l-8.555,8.554,0,0c-.014.014-.028.03-.041.045l-.02.026-.019.025c-.007.01-.013.02-.019.032a.217.217,0,0,0-.014.024c-.006.01-.01.021-.015.032s-.009.017-.012.026-.008.021-.012.032l-.01.029c0,.011-.006.021-.009.032l-.008.03c0,.013,0,.026-.006.038s0,.017,0,.026a.567.567,0,0,0,0,.066v1.956a.659.659,0,0,0,.658.658H133.9a.551.551,0,0,0,.065,0l.03,0,.034-.005.033-.009.029-.008.032-.011.029-.01.03-.014.029-.014.027-.016.028-.017.028-.021.023-.017a.532.532,0,0,0,.046-.042l0,0,8.554-8.554A.655.655,0,0,0,142.926,94.009Zm-9.293,8.362h-1.025v-1.025l7.9-7.9,1.025,1.025Z" transform="translate(584.222 339.896)"/></g></svg>