<svg xmlns="http://www.w3.org/2000/svg" width="493.166" height="56.106" viewBox="0 0 493.166 56.106"><defs><style>.a{fill:#00163e;}.b{fill:#a01622;}</style></defs><g transform="translate(4207.982 2029.568)"><g transform="translate(-4207.982 -2029.568)"><path class="a" d="M73.152,0a2.748,2.748,0,0,0-1.09.225l-.607.25a3.738,3.738,0,0,0-1.89,4.674,71.429,71.429,0,0,1,0,45.8,3.735,3.735,0,0,0,1.879,4.674l.629.259a2.7,2.7,0,0,0,1.079.222,3.857,3.857,0,0,0,3.439-2.761,78.9,78.9,0,0,0,0-50.586A3.85,3.85,0,0,0,73.152,0" transform="translate(-69.349)"/><path class="b" d="M86.159,6.17a2.22,2.22,0,0,0-.59.08l-.626.152c-1.776.465-2.825,2.727-2.388,5.153A84.886,84.886,0,0,1,83.831,30.7c-.112,2.45,1.226,4.542,3.046,4.762h0s.862.094.943.094c1.551,0,3.3-1.811,3.421-4.506a92.4,92.4,0,0,0-1.388-20.819c-.459-2.539-2.24-4.055-3.7-4.055" transform="translate(-66.535 1.325)"/><path class="a" d="M123.567,0a2.748,2.748,0,0,1,1.09.225l.607.25a3.738,3.738,0,0,1,1.89,4.674,71.429,71.429,0,0,0,0,45.8,3.735,3.735,0,0,1-1.879,4.674l-.629.259a2.7,2.7,0,0,1-1.079.222,3.857,3.857,0,0,1-3.439-2.761,78.9,78.9,0,0,1,0-50.586A3.85,3.85,0,0,1,123.567,0" transform="translate(-59.342)"/><path class="b" d="M110.114,6.17a2.22,2.22,0,0,1,.59.08l.626.152c1.776.465,2.825,2.727,2.388,5.153A84.885,84.885,0,0,0,112.443,30.7c.112,2.45-1.226,4.542-3.046,4.762h0s-.862.094-.943.094c-1.551,0-3.3-1.811-3.421-4.506a92.4,92.4,0,0,1,1.388-20.819c.459-2.539,2.24-4.055,3.7-4.055" transform="translate(-61.71 1.325)"/><path class="a" d="M98.06,22.823a4.576,4.576,0,1,0,4.576,4.576,4.581,4.581,0,0,0-4.576-4.576" transform="translate(-64.167 4.899)"/></g><g transform="translate(-4100.602 -2026.311)"><path class="a" d="M65.294,68.148a26.444,26.444,0,0,1,6.358.648,9.876,9.876,0,0,1,4.156,2.036,7.454,7.454,0,0,1,2.231,3.563,18.437,18.437,0,0,1,.65,5.229V97.936a1.1,1.1,0,0,1-1.244,1.244H71.9a1.1,1.1,0,0,1-1.241-1.244V81.543a16.321,16.321,0,0,0-.228-2.967,3.936,3.936,0,0,0-.847-1.922,3.532,3.532,0,0,0-1.749-1.018,11.71,11.71,0,0,0-3-.308H54.894V97.936c0,.829-.438,1.244-1.3,1.244H48.051a1.1,1.1,0,0,1-1.244-1.244V75.328H37.2a12.072,12.072,0,0,0-3,.308,4.125,4.125,0,0,0-1.894,1.018,3.9,3.9,0,0,0-.99,1.922,13.27,13.27,0,0,0-.282,2.967V97.936A1.1,1.1,0,0,1,29.8,99.18H24.256q-1.3,0-1.3-1.244V79.623a17.737,17.737,0,0,1,.679-5.229,7.72,7.72,0,0,1,2.233-3.563A9.609,9.609,0,0,1,29.992,68.8a26.744,26.744,0,0,1,6.415-.648Z" transform="translate(-22.955 -56.784)"/><path class="a" d="M76.424,68.148a26.678,26.678,0,0,1,6.389.65,9.65,9.65,0,0,1,4.156,2.036,7.757,7.757,0,0,1,2.231,3.56,17.651,17.651,0,0,1,.679,5.229v8.138A17.639,17.639,0,0,1,89.2,92.99a7.765,7.765,0,0,1-2.231,3.563,9.483,9.483,0,0,1-4.156,2.008,27.962,27.962,0,0,1-6.389.619H60.43a27.886,27.886,0,0,1-6.418-.619,9.451,9.451,0,0,1-4.127-2.008,7.723,7.723,0,0,1-2.231-3.563,17.639,17.639,0,0,1-.679-5.229V79.623a17.651,17.651,0,0,1,.679-5.229,7.715,7.715,0,0,1,2.231-3.56A9.62,9.62,0,0,1,54.012,68.8a26.605,26.605,0,0,1,6.418-.65Zm-21.365,18.2a13.192,13.192,0,0,0,.282,3,3.867,3.867,0,0,0,.99,1.894,4.056,4.056,0,0,0,1.891,1.018,12.1,12.1,0,0,0,3,.311H75.634a12.354,12.354,0,0,0,3.052-.311,4.065,4.065,0,0,0,1.894-1.018,3.867,3.867,0,0,0,.99-1.894,13.192,13.192,0,0,0,.282-3V80.981a12.883,12.883,0,0,0-.282-2.941,4.04,4.04,0,0,0-.99-1.92A3.728,3.728,0,0,0,78.686,75.1a13.482,13.482,0,0,0-3.052-.285H61.22a13.2,13.2,0,0,0-3,.285,3.72,3.72,0,0,0-1.891,1.018,4.04,4.04,0,0,0-.99,1.92,12.882,12.882,0,0,0-.282,2.941Z" transform="translate(15.26 -56.784)"/><path class="a" d="M101.491,75.126V65.008a1.1,1.1,0,0,1,1.244-1.246h5.539a1.1,1.1,0,0,1,1.244,1.246V94.739a17.817,17.817,0,0,1-.676,5.229,7.773,7.773,0,0,1-2.236,3.563,9.458,9.458,0,0,1-4.153,2.008,27.963,27.963,0,0,1-6.389.619H80.24a27.855,27.855,0,0,1-6.418-.619,9.426,9.426,0,0,1-4.125-2.008,7.665,7.665,0,0,1-2.233-3.563,17.639,17.639,0,0,1-.679-5.229V86.6a17.651,17.651,0,0,1,.679-5.229A7.678,7.678,0,0,1,69.7,77.81a9.621,9.621,0,0,1,4.125-2.034,26.575,26.575,0,0,1,6.418-.65ZM95.275,99.375a12.359,12.359,0,0,0,3.05-.308,4.078,4.078,0,0,0,1.894-1.018,3.906,3.906,0,0,0,.987-1.9,12.988,12.988,0,0,0,.285-2.993V81.909H81.03a12.117,12.117,0,0,0-3,.311,4.046,4.046,0,0,0-1.889,1.018,3.923,3.923,0,0,0-.992,1.92,13.3,13.3,0,0,0-.282,2.969v5.032a13.152,13.152,0,0,0,.282,2.993,3.911,3.911,0,0,0,.992,1.9,4.046,4.046,0,0,0,1.889,1.018,12.131,12.131,0,0,0,3,.308Z" transform="translate(46.776 -63.762)"/><path class="a" d="M92.76,68.148c.829,0,1.241.433,1.241,1.3V85.782a16.517,16.517,0,0,0,.225,3,3.92,3.92,0,0,0,.847,1.891,3.509,3.509,0,0,0,1.757,1.018,11.651,11.651,0,0,0,3,.311h14.527a12.345,12.345,0,0,0,3.05-.311,4.065,4.065,0,0,0,1.894-1.018,3.894,3.894,0,0,0,.992-1.891,13.234,13.234,0,0,0,.28-3V69.449q0-1.3,1.244-1.3h5.542q1.24,0,1.241,1.3V87.762a17.73,17.73,0,0,1-.676,5.229,7.785,7.785,0,0,1-2.231,3.56,9.438,9.438,0,0,1-4.158,2.008,27.924,27.924,0,0,1-6.387.622H99.369a27.877,27.877,0,0,1-6.415-.622,9.385,9.385,0,0,1-4.125-2.008A7.706,7.706,0,0,1,86.6,92.99a17.811,17.811,0,0,1-.679-5.229V69.449a1.15,1.15,0,0,1,1.3-1.3Z" transform="translate(77.214 -56.784)"/><rect class="a" width="8.027" height="42.396" rx="0.48" transform="translate(212.876)"/><path class="a" d="M140.521,68.148a19.791,19.791,0,0,1,4.775.479,6.348,6.348,0,0,1,3,1.58,6.137,6.137,0,0,1,1.555,2.884,17.868,17.868,0,0,1,.451,4.324v5.368a3.281,3.281,0,0,1-.79,2.518,3.568,3.568,0,0,1-2.43.7H118.532v1.358a5.037,5.037,0,0,0,1.272,3.842q1.271,1.189,4.946,1.187h23.57a.9.9,0,0,1,1.018,1.018v4.749a.9.9,0,0,1-1.018,1.018H123.957a27.861,27.861,0,0,1-6.415-.622,9.423,9.423,0,0,1-4.127-2.008,7.744,7.744,0,0,1-2.231-3.563,17.639,17.639,0,0,1-.679-5.229V79.621a17.651,17.651,0,0,1,.679-5.229,7.736,7.736,0,0,1,2.231-3.56,9.62,9.62,0,0,1,4.127-2.036,26.743,26.743,0,0,1,6.415-.648Zm-21.989,12.83h22.894a.851.851,0,0,0,.961-.964V77.644a3.454,3.454,0,0,0-.736-2.49,3.847,3.847,0,0,0-2.713-.733H124.75q-3.677,0-4.946,1.158a5.031,5.031,0,0,0-1.272,3.871Z" transform="translate(116.333 -56.784)"/><path class="b" d="M139.454,64.854a11.747,11.747,0,0,1,2.148.168,3.989,3.989,0,0,1,1.583.65,4.789,4.789,0,0,1,1.215,1.3,13.746,13.746,0,0,1,1.1,2.176l11.755,27.132a.8.8,0,0,0,.793.508h.679a.8.8,0,0,0,.79-.508L171.279,69.15a13.318,13.318,0,0,1,1.1-2.176,4.711,4.711,0,0,1,1.215-1.3,3.974,3.974,0,0,1,1.555-.65,11.236,11.236,0,0,1,2.117-.168h6.05q2.938,0,3.956,1.327t1.016,4.552v32.444c0,.832-.43,1.246-1.3,1.246h-5.765a1.1,1.1,0,0,1-1.244-1.246V73.671c0-.376-.153-.565-.453-.565h-.508a.7.7,0,0,0-.736.451L166.869,98.881a16.645,16.645,0,0,1-1.384,2.573,8.144,8.144,0,0,1-1.526,1.723,4.931,4.931,0,0,1-1.865.964,9.593,9.593,0,0,1-2.459.282H156.92a9.543,9.543,0,0,1-2.456-.282,4.923,4.923,0,0,1-1.868-.964,8.073,8.073,0,0,1-1.526-1.723,16.642,16.642,0,0,1-1.384-2.573L138.268,73.557a.7.7,0,0,0-.736-.451h-.508c-.3,0-.453.189-.453.565v29.506a1.1,1.1,0,0,1-1.241,1.246h-5.767c-.868,0-1.3-.415-1.3-1.246V70.733q0-3.222,1.016-4.552t4.013-1.327Z" transform="translate(144.587 -62.025)"/><path class="b" d="M182.463,64.853a29,29,0,0,1,7.858.933,12.892,12.892,0,0,1,5.368,2.884,11.537,11.537,0,0,1,3.081,4.975,23.045,23.045,0,0,1,.987,7.151V88.48a23.045,23.045,0,0,1-.987,7.151,11.536,11.536,0,0,1-3.081,4.975,12.892,12.892,0,0,1-5.368,2.884,29.105,29.105,0,0,1-7.858.933H156.009a1.5,1.5,0,0,1-1.7-1.7V66.548a1.5,1.5,0,0,1,1.7-1.695Zm-19.5,30.977a.649.649,0,0,0,.733.733h18.543a16.41,16.41,0,0,0,4.182-.451,6.1,6.1,0,0,0,2.744-1.472,5.777,5.777,0,0,0,1.5-2.713,16.528,16.528,0,0,0,.451-4.182V81.528a16.527,16.527,0,0,0-.451-4.182,5.8,5.8,0,0,0-1.5-2.715,6.117,6.117,0,0,0-2.744-1.469,16.411,16.411,0,0,0-4.182-.451H163.694c-.487,0-.733.262-.733.79Z" transform="translate(186.028 -62.026)"/></g></g></svg>