<svg xmlns="http://www.w3.org/2000/svg" width="23.698" height="23.698" viewBox="0 0 23.698 23.698"><defs><style>.a,.b{fill:#fff;}.b{fill-rule:evenodd;}</style></defs><g transform="translate(-269 -814)"><path class="a" d="M8.841,9.332a5.056,5.056,0,1,1,10.017,0l-.4,2.874a4.686,4.686,0,0,1-.125.6,7.14,7.14,0,0,1,1.44-.146q.106,0,.211,0,.022-.121.039-.244l.4-2.874a6.636,6.636,0,1,0-13.147,0l.4,2.874A6.225,6.225,0,0,0,10.1,16.542L9.8,18.009,5.046,19.85a3.16,3.16,0,0,0-1.793,1.773l-1.2,2.992A.79.79,0,0,0,2.79,25.7H15.843a7.149,7.149,0,0,1-1.7-1.58H3.957L4.72,22.21a1.58,1.58,0,0,1,.9-.887L10.575,19.4a1.185,1.185,0,0,0,.734-.873l.438-2.189a.79.79,0,0,0-.357-.825,4.649,4.649,0,0,1-2.15-3.311Z" transform="translate(267 812)"/><path class="a" d="M42.16,39a.79.79,0,0,1,.79.79v1.58h1.58a.79.79,0,1,1,0,1.58H42.95v1.58a.79.79,0,1,1-1.58,0V42.95H39.79a.79.79,0,1,1,0-1.58h1.58V39.79A.79.79,0,0,1,42.16,39Z" transform="translate(244.614 789.614)"/><path class="b" d="M37.925,32A5.925,5.925,0,1,1,32,37.925,5.925,5.925,0,0,1,37.925,32Zm4.345,5.925a4.345,4.345,0,1,0-4.345,4.345A4.345,4.345,0,0,0,42.269,37.925Z" transform="translate(248.849 793.849)"/></g></svg>