<svg xmlns="http://www.w3.org/2000/svg" width="15.9" height="18.171" viewBox="0 0 15.9 18.171"><path d="M14.782,7.732,13.63,6.58,7.866,12.342A2.445,2.445,0,0,0,11.324,15.8l6.917-6.915a4.075,4.075,0,0,0-5.763-5.762L5.215,10.383,5.2,10.4a5.683,5.683,0,0,0,8.038,8.037l.015-.016h0l4.957-4.956-1.153-1.152L12.1,17.267l-.015.015a4.053,4.053,0,0,1-5.733-5.731l.016-.015h0L13.63,4.274a2.445,2.445,0,0,1,3.458,3.457l-6.917,6.915a.815.815,0,0,1-1.153-1.152l5.764-5.763Z" transform="translate(-3.535 -1.928)"/></svg>