<svg xmlns="http://www.w3.org/2000/svg" width="19.151" height="9.575" viewBox="0 0 19.151 9.575"><defs><style>.a{fill:#fff;}</style></defs><path class="a" d="M16.278,8.665V10.58h.958V12.5h-.958V14.41H1.915V8.665H16.278m.479-1.915H1.436A1.436,1.436,0,0,0,0,8.186v6.7a1.436,1.436,0,0,0,1.436,1.436H16.757a1.436,1.436,0,0,0,1.436-1.436V14.41h.239a.718.718,0,0,0,.718-.718V9.383a.718.718,0,0,0-.718-.718h-.239V8.186A1.436,1.436,0,0,0,16.757,6.75ZM6.7,9.623H2.873v3.83H6.7Z" transform="translate(0 -6.75)"/></svg>