<svg xmlns="http://www.w3.org/2000/svg" width="26.935" height="30.783" viewBox="0 0 26.935 30.783"><defs><style>.a{fill:#b22a2e;}</style></defs><path class="a" d="M0,27.9a2.887,2.887,0,0,0,2.886,2.886H24.049A2.887,2.887,0,0,0,26.935,27.9V11.544H0ZM19.239,16.113a.724.724,0,0,1,.721-.721h2.4a.724.724,0,0,1,.721.721v2.4a.724.724,0,0,1-.721.721h-2.4a.724.724,0,0,1-.721-.721Zm0,7.7a.724.724,0,0,1,.721-.721h2.4a.724.724,0,0,1,.721.721v2.4a.724.724,0,0,1-.721.721h-2.4a.724.724,0,0,1-.721-.721Zm-7.7-7.7a.724.724,0,0,1,.721-.721h2.4a.724.724,0,0,1,.721.721v2.4a.724.724,0,0,1-.721.721h-2.4a.724.724,0,0,1-.721-.721Zm0,7.7a.724.724,0,0,1,.721-.721h2.4a.724.724,0,0,1,.721.721v2.4a.724.724,0,0,1-.721.721h-2.4a.724.724,0,0,1-.721-.721Zm-7.7-7.7a.724.724,0,0,1,.721-.721h2.4a.724.724,0,0,1,.721.721v2.4a.724.724,0,0,1-.721.721h-2.4a.724.724,0,0,1-.721-.721Zm0,7.7a.724.724,0,0,1,.721-.721h2.4a.724.724,0,0,1,.721.721v2.4a.724.724,0,0,1-.721.721h-2.4a.724.724,0,0,1-.721-.721Zm20.2-19.961H21.163V.962A.965.965,0,0,0,20.2,0H18.277a.965.965,0,0,0-.962.962V3.848H9.62V.962A.965.965,0,0,0,8.658,0H6.734a.965.965,0,0,0-.962.962V3.848H2.886A2.887,2.887,0,0,0,0,6.734V9.62H26.935V6.734A2.887,2.887,0,0,0,24.049,3.848Z"/></svg>