<svg xmlns="http://www.w3.org/2000/svg" width="17.011" height="14.712" viewBox="0 0 17.011 14.712"><defs><style>.a{fill:#fff;}</style></defs><path class="a" d="M7.2,8.276H5.825a.46.46,0,0,0-.46.46v5.517a.46.46,0,0,0,.46.46H7.2a.46.46,0,0,0,.46-.46V8.735A.46.46,0,0,0,7.2,8.276ZM3.527,11.034H2.147a.46.46,0,0,0-.46.46v2.759a.46.46,0,0,0,.46.46H3.527a.46.46,0,0,0,.46-.46V11.494A.46.46,0,0,0,3.527,11.034Zm7.356-5.517H9.5a.46.46,0,0,0-.46.46v8.276a.46.46,0,0,0,.46.46h1.379a.46.46,0,0,0,.46-.46V5.977A.46.46,0,0,0,10.883,5.517Zm3.678-2.759H13.181a.46.46,0,0,0-.46.46V14.252a.46.46,0,0,0,.46.46h1.379a.46.46,0,0,0,.46-.46V3.218A.46.46,0,0,0,14.561,2.759ZM18.239,0H16.86a.46.46,0,0,0-.46.46V14.252a.46.46,0,0,0,.46.46h1.379a.46.46,0,0,0,.46-.46V.46A.46.46,0,0,0,18.239,0Z" transform="translate(-1.688)"/></svg>