<svg xmlns="http://www.w3.org/2000/svg" width="17.467" height="22.707" viewBox="0 0 17.467 22.707"><defs><style>.a{fill:#308400;}</style></defs><path class="a" d="M22.033,11.235h-1.31V8.686a5.24,5.24,0,1,0-10.48-.071v2.62H8.933A2.19,2.19,0,0,0,6.75,13.418V23.9a2.19,2.19,0,0,0,2.183,2.183h13.1A2.19,2.19,0,0,0,24.217,23.9V13.418A2.19,2.19,0,0,0,22.033,11.235Zm-5.786,6.812V21.8a.783.783,0,0,1-.726.786.765.765,0,0,1-.8-.764V18.047a1.747,1.747,0,1,1,1.528,0ZM19.2,11.235H11.772V8.615a3.712,3.712,0,0,1,7.423,0Z" transform="translate(-6.75 -3.374)"/></svg>