<svg xmlns="http://www.w3.org/2000/svg" width="17.001" height="11.901" viewBox="0 0 17.001 11.901"><defs><style>.a{fill:#fff;}</style></defs><path class="a" d="M16.866,5.514a12.351,12.351,0,0,0-16.73,0,.422.422,0,0,0-.009.61l.91.9a.431.431,0,0,0,.6.01,10.192,10.192,0,0,1,13.74,0,.432.432,0,0,0,.6-.01l.91-.9A.422.422,0,0,0,16.866,5.514ZM8.5,10.75a1.7,1.7,0,1,0,1.7,1.7A1.7,1.7,0,0,0,8.5,10.75Zm5.384-2.22a8.155,8.155,0,0,0-10.767,0,.42.42,0,0,0-.015.615l.915.9a.434.434,0,0,0,.586.021,5.983,5.983,0,0,1,7.8,0,.433.433,0,0,0,.586-.021l.915-.9A.42.42,0,0,0,13.884,8.53Z" transform="translate(0 -2.25)"/></svg>