<svg xmlns="http://www.w3.org/2000/svg" width="22.219" height="22.055" viewBox="0 0 22.219 22.055"><defs><style>.a{fill:#fff;}</style></defs><g transform="translate(-2.855 -2.473)"><path class="a" d="M24.185,18.182l-2.9-3.031A2.854,2.854,0,0,0,19.07,14.3a3.315,3.315,0,0,0-2.19.983l-.568.556a.628.628,0,0,1-.864.095L11.4,11.883a.509.509,0,0,1-.083-.379.77.77,0,0,1,.225-.485l.556-.556a3.126,3.126,0,0,0,.142-4.4L9.492,3.346a3.067,3.067,0,0,0-2.368-.864A3.469,3.469,0,0,0,4.613,3.9a8.288,8.288,0,0,0,.474,10.763l7.625,7.625a7.72,7.72,0,0,0,5.494,2.238,8.951,8.951,0,0,0,5.21-1.729l.107-.083a3.552,3.552,0,0,0,1.551-2.5,2.7,2.7,0,0,0-.888-2.037ZM22.4,21.308h0a6.465,6.465,0,0,1-8.442-.3l-7.649-7.6a6.477,6.477,0,0,1-.3-8.466,1.681,1.681,0,0,1,1.184-.687H7.3a1.279,1.279,0,0,1,.9.355l2.735,2.7a1.338,1.338,0,0,1-.142,1.894l-.556.556a2.546,2.546,0,0,0-.746,1.622,2.25,2.25,0,0,0,.639,1.752l4.049,4.049a2.368,2.368,0,0,0,3.375-.083l.568-.568a1.48,1.48,0,0,1,1.006-.462,1.184,1.184,0,0,1,.876.308L22.895,19.4c.379.4.355.639.355.71A2.025,2.025,0,0,1,22.4,21.308Z"/><path class="a" d="M8.946,6.691,7.762,5.507A.888.888,0,0,0,6.507,6.762L7.691,7.946A.887.887,0,1,0,8.946,6.691Z" transform="translate(0.628 0.515)"/><path class="a" d="M17.769,15.514a.888.888,0,1,0-1.255,1.255L17.7,17.953A.887.887,0,1,0,18.953,16.7Z" transform="translate(2.462 2.348)"/></g></svg>