<svg xmlns="http://www.w3.org/2000/svg" width="21.282" height="24.146" viewBox="0 0 21.282 24.146"><defs><style>.a{fill:#fff;stroke:#fff;stroke-width:0.3px;}</style></defs><g transform="translate(0.161 0.15)"><path class="a" d="M48.7,12.243V10.014a7.232,7.232,0,0,0-5.123-6.908V2.1a2.1,2.1,0,1,0-4.192,0V3.105a7.232,7.232,0,0,0-5.123,6.908v2.229a10.97,10.97,0,0,1-3.066,7.627.7.7,0,0,0,.5,1.182h6.358a3.493,3.493,0,0,0,6.846,0h6.358a.7.7,0,0,0,.5-1.182A10.97,10.97,0,0,1,48.7,12.243ZM40.78,2.1a.7.7,0,1,1,1.4,0v.733c-.23-.022-.463-.034-.7-.034s-.469.012-.7.034Zm.7,20.353a2.1,2.1,0,0,1-1.976-1.4h3.951A2.1,2.1,0,0,1,41.478,22.449ZM33.2,19.654a12.352,12.352,0,0,0,2.453-7.412V10.014a5.822,5.822,0,1,1,11.644,0v2.229a12.352,12.352,0,0,0,2.453,7.412Z" transform="translate(-30.999)"/><path class="a" d="M392.357,59.121a.7.7,0,1,0,1.4,0,10.411,10.411,0,0,0-3.069-7.41.7.7,0,0,0-.988.988A9.023,9.023,0,0,1,392.357,59.121Z" transform="translate(-372.796 -49.108)"/><path class="a" d="M31.7,59.821a.7.7,0,0,0,.7-.7,9.023,9.023,0,0,1,2.66-6.422.7.7,0,0,0-.988-.988A10.411,10.411,0,0,0,31,59.122.7.7,0,0,0,31.7,59.821Z" transform="translate(-31 -49.109)"/></g></svg>