<svg xmlns="http://www.w3.org/2000/svg" width="25.7" height="25.7" viewBox="0 0 25.7 25.7"><defs><style>.a{fill:#cc8533;}</style></defs><path class="a" d="M24.35,11.5A12.85,12.85,0,1,0,37.2,24.35,12.877,12.877,0,0,0,24.35,11.5Zm4.639,17.456a.889.889,0,0,1-1.2,0L24.35,25.518l-3.4,3.438a.838.838,0,1,1-1.2-1.168l3.438-3.438-3.438-3.438a.826.826,0,0,1,1.168-1.168l3.438,3.438,3.438-3.438a.826.826,0,0,1,1.168,1.168L25.518,24.35l3.471,3.438A.806.806,0,0,1,28.989,28.956Z" transform="translate(-11.5 -11.5)"/></svg>