<svg xmlns="http://www.w3.org/2000/svg" width="29.833" height="38.247" viewBox="0 0 29.833 38.247"><path d="M34.793,14.534a1.912,1.912,0,0,0-1.912,1.912,1.147,1.147,0,1,1-2.295,0V13.769a1.912,1.912,0,1,0-3.825,0v2.677a1.147,1.147,0,0,1-2.295,0V13.769a1.912,1.912,0,1,0-3.825,0v2.677a1.147,1.147,0,1,1-2.295,0V1.912a1.912,1.912,0,0,0-3.825,0V22.566a1.912,1.912,0,0,1-3.825,0V17.976a1.912,1.912,0,0,0-3.825,0V23.33A14.933,14.933,0,0,0,21.789,38.247h4.59A10.338,10.338,0,0,0,36.706,27.92V16.446A1.912,1.912,0,0,0,34.793,14.534Z" transform="translate(-6.873)"/></svg>