<svg xmlns="http://www.w3.org/2000/svg" width="23.801" height="23.801" viewBox="0 0 23.801 23.801"><defs><style>.a{fill:#007bf9;}</style></defs><path class="a" d="M17.9,6A11.9,11.9,0,1,0,29.8,17.9,11.851,11.851,0,0,0,17.9,6Zm0,18.512a2.038,2.038,0,0,1-.926.4h-.4a1.058,1.058,0,0,1-.793-1.454l.926-3.7.4-1.719c.4-1.587-1.19.264-1.587-.4-.264-.529,1.19-1.454,2.38-2.248a2.038,2.038,0,0,1,.926-.4h.4a1.218,1.218,0,0,1,.926,1.454l-.926,3.7-.4,1.719c-.4,1.587,1.19-.4,1.587.4C20.413,22.793,18.958,23.851,17.9,24.512Zm2.248-11.5a1.7,1.7,0,0,1-2.116,1.19,1.9,1.9,0,0,1-1.322-2.116,1.782,1.782,0,0,1,3.438.926Z" transform="translate(-6 -6)"/></svg>