<svg xmlns="http://www.w3.org/2000/svg" width="17.775" height="18.007" viewBox="0 0 17.775 18.007"><defs><style>.a{fill:#b22a2e;}</style></defs><path class="a" d="M15.618,2.371H14.1V.963a.675.675,0,1,0-1.351,0V2.371H5.875V.963a.675.675,0,1,0-1.351,0V2.371H3A2.583,2.583,0,0,0,.424,4.952v10.76A2.584,2.584,0,0,0,3,18.294H15.618A2.584,2.584,0,0,0,18.2,15.712V4.952a2.583,2.583,0,0,0-2.581-2.581ZM7.073,8.649v1.918H5.155V8.649Zm3.127,0v1.918H8.424V8.649Zm3.269,0v1.918H11.551V8.649Zm3.38,0v1.918H14.82V8.649ZM10.2,11.918v1.706H8.424V11.918ZM3.8,10.567H1.775V8.649H3.8ZM1.775,11.918H3.8v1.706H1.775Zm3.38,0H7.073v1.706H5.155Zm1.918,3.057v1.968H5.155V14.975Zm1.351,0H10.2v1.968H8.424Zm3.127,0h1.918v1.968H11.551Zm0-1.351V11.918h1.918v1.706Zm3.269-1.706h2.029v1.706H14.82ZM3,3.722h1.52v.667a.675.675,0,1,0,1.351,0V3.722h6.873v.667a.675.675,0,1,0,1.351,0V3.722h1.519a1.232,1.232,0,0,1,1.23,1.23V7.3H1.775V4.952A1.232,1.232,0,0,1,3,3.722Zm-1.23,11.99v-.737H3.8v1.968H3a1.232,1.232,0,0,1-1.23-1.231Zm13.843,1.231h-.8V14.975h2.029v.737a1.232,1.232,0,0,1-1.23,1.231Z" transform="translate(-0.424 -0.287)"/></svg>